<svg id="icons" enable-background="new 0 0 64 64" height="512" viewBox="0 0 64 64" width="512" xmlns="http://www.w3.org/2000/svg"><path d="m31.501 46c-.553 0-1-.447-1-1v-9c0-.553.447-1 1-1s1 .447 1 1v9c0 .553-.447 1-1 1z" fill="#4a89dc"/><path d="m49.495 40.992c-.553 0-1-.447-1-1v-3.992c0-.553.447-1 1-1s1 .447 1 1v3.992c0 .553-.447 1-1 1z" fill="#4a89dc"/><path d="m13.501 40.992c-.553 0-1-.447-1-1v-4.676c0-.553.447-1 1-1s1 .447 1 1v4.676c0 .553-.447 1-1 1z" fill="#4a89dc"/><path d="m17.585 12c2.42-6.43 8.63-11 15.91-11 9.39 0 17 7.61 17 17 4.97 0 9 4.03 9 9s-4.03 9-9 9h-18.99-15c-1.4 0-2.75-.24-4-.69-4.66-1.64-8-6.09-8-11.31 0-6.63 5.37-12 12-12z" fill="#e6e9ed"/><path d="m32.496 30c-3.031 0-5.864-1.354-7.774-3.713-.348-.429-.281-1.059.148-1.406s1.06-.28 1.406.148c1.529 1.888 3.795 2.971 6.22 2.971 4.411 0 8-3.589 8-8 0-.553.447-1 1-1s1 .447 1 1c0 5.514-4.486 10-10 10z" fill="#656d78"/><path d="m43 23.002c-.304 0-.604-.138-.801-.399l-1.503-2.002c-.331-.441-.242-1.068.199-1.4.441-.33 1.069-.242 1.4.199l1.503 2.002c.331.441.242 1.068-.199 1.4-.179.135-.39.2-.599.2z" fill="#656d78"/><path d="m39.5 22.5c-.304 0-.604-.138-.801-.399-.331-.441-.242-1.068.199-1.4l1.997-1.5c.441-.33 1.069-.242 1.4.199s.242 1.068-.199 1.4l-1.996 1.5c-.18.135-.391.2-.6.2z" fill="#656d78"/><path d="m23.498 21.004c-.553 0-1-.447-1-1 0-5.514 4.486-10 10-10 3.031 0 5.864 1.354 7.774 3.713.348.429.281 1.059-.148 1.406-.43.347-1.06.28-1.406-.148-1.528-1.888-3.795-2.971-6.22-2.971-4.411 0-8 3.589-8 8 0 .553-.447 1-1 1z" fill="#656d78"/><path d="m23.499 21.004c-.305 0-.605-.139-.802-.4l-1.499-2.002c-.331-.442-.24-1.069.201-1.4.442-.332 1.07-.239 1.4.201l1.499 2.002c.331.442.24 1.069-.201 1.4-.179.134-.39.199-.598.199z" fill="#656d78"/><path d="m23.499 21.004c-.304 0-.604-.138-.8-.398-.332-.441-.244-1.068.197-1.4l1.997-1.504c.444-.332 1.069-.242 1.4.197.332.441.244 1.068-.197 1.4l-1.996 1.504c-.18.135-.392.201-.601.201z" fill="#656d78"/><path d="m20.496 46.99c0 3.859-3.13 7-6.99 7-3.87 0-7-3.141-7.01-7 .01-3.86 3.14-7 7.01-7 3.86 0 6.99 3.14 6.99 7z" fill="#5d9cec"/><path d="m56.494 46.99c0 3.859-3.13 7-7 7-3.86 0-7-3.141-7-7 0-3.86 3.14-7 7-7 3.87 0 7 3.14 7 7z" fill="#5d9cec"/><circle cx="31.505" cy="54" fill="#5d9cec" r="9"/><g fill="#4a89dc"><path d="m36.498 55c-.256 0-.512-.098-.707-.293l-1.999-2c-.391-.391-.391-1.023 0-1.414s1.023-.391 1.414 0l1.999 2c.391.391.391 1.023 0 1.414-.195.195-.451.293-.707.293z"/><path d="m34.499 56.996c-.256 0-.512-.098-.707-.293-.391-.391-.391-1.023 0-1.414l1.999-1.998c.391-.391 1.023-.391 1.414 0s.391 1.023 0 1.414l-1.999 1.998c-.195.195-.451.293-.707.293z"/><path d="m26.501 55.002c-.256 0-.512-.098-.707-.293-.391-.39-.391-1.023 0-1.414l2-2.002c.391-.391 1.023-.391 1.414 0 .391.39.391 1.023 0 1.414l-2 2.002c-.195.195-.451.293-.707.293z"/><path d="m28.501 56.998c-.256 0-.512-.098-.707-.293l-2-2c-.391-.391-.391-1.023 0-1.414s1.023-.391 1.414 0l2 2c.391.391.391 1.023 0 1.414-.195.195-.451.293-.707.293z"/><path d="m30.502 59.002c-.08 0-.162-.01-.243-.03-.536-.134-.862-.677-.728-1.212l1.999-8.002c.133-.536.674-.864 1.212-.728.536.134.862.677.728 1.212l-1.999 8.002c-.114.455-.521.758-.969.758z"/><path d="m53.491 48.002c-.256 0-.512-.098-.707-.293l-.996-.996c-.391-.391-.391-1.023 0-1.414s1.023-.391 1.414 0l.996.996c.391.391.391 1.023 0 1.414-.195.195-.451.293-.707.293z"/><path d="m52.49 49c-.256 0-.512-.098-.707-.293-.391-.391-.391-1.024 0-1.414l1.001-1c.391-.391 1.023-.391 1.414 0s.391 1.024 0 1.414l-1.001 1c-.195.195-.451.293-.707.293z"/><path d="m45.496 48.002c-.256 0-.512-.098-.707-.293-.391-.391-.391-1.024 0-1.414l1.001-1c.391-.391 1.023-.391 1.414 0s.391 1.024 0 1.414l-1.001 1c-.195.195-.451.293-.707.293z"/><path d="m46.497 49c-.256 0-.512-.098-.707-.293l-1.001-1c-.391-.39-.391-1.023 0-1.414s1.023-.391 1.414 0l1.001 1c.391.39.391 1.023 0 1.414-.195.195-.451.293-.707.293z"/><path d="m48.996 49.994c-.08 0-.162-.01-.243-.029-.536-.134-.861-.677-.729-1.213l.998-3.998c.134-.535.675-.86 1.213-.729.536.134.861.677.729 1.213l-.998 3.998c-.114.454-.522.758-.97.758z"/><path d="m17.497 48.002c-.256 0-.512-.098-.707-.293l-.996-.996c-.391-.391-.391-1.023 0-1.414s1.023-.391 1.414 0l.996.996c.391.391.391 1.023 0 1.414-.195.195-.451.293-.707.293z"/><path d="m16.496 49c-.256 0-.512-.098-.707-.293-.391-.391-.391-1.024 0-1.414l1.001-1c.391-.391 1.023-.391 1.414 0s.391 1.024 0 1.414l-1.001 1c-.195.195-.451.293-.707.293z"/><path d="m9.502 48.002c-.256 0-.512-.098-.707-.293-.391-.391-.391-1.024 0-1.414l1.001-1c.391-.391 1.023-.391 1.414 0s.391 1.024 0 1.414l-1.001 1c-.195.195-.451.293-.707.293z"/><path d="m10.503 49c-.256 0-.512-.098-.707-.293l-1.001-1c-.391-.39-.391-1.023 0-1.414s1.023-.391 1.414 0l1.001 1c.391.39.391 1.023 0 1.414-.195.195-.451.293-.707.293z"/><path d="m13.002 49.994c-.08 0-.162-.01-.243-.029-.536-.134-.861-.677-.729-1.213l.998-3.998c.134-.535.678-.86 1.213-.729.536.134.861.677.729 1.213l-.998 3.998c-.115.454-.522.758-.97.758z"/></g></svg>